<?xml version="1.0" standalone="no"?>
<!DOCTYPE svg PUBLIC "-//W3C//DTD SVG 20010904//EN"
 "http://www.w3.org/TR/2001/REC-SVG-20010904/DTD/svg10.dtd">
<svg version="1.0" xmlns="http://www.w3.org/2000/svg"
 width="16.000000pt" height="16.000000pt" viewBox="0 0 16.000000 16.000000"
 preserveAspectRatio="xMidYMid meet">
<metadata>
Created by potrace 1.11, written by Peter Selinger 2001-2013
</metadata>
<g transform="translate(0.000000,16.000000) scale(0.003200,-0.003200)"
fill="#000000" stroke="none">
<path d="M473 4700 c-169 -45 -275 -169 -268 -316 5 -95 40 -182 108 -266 l38
-47 -47 -63 c-108 -145 -150 -305 -119 -453 19 -90 58 -157 138 -237 54 -55
88 -78 170 -117 158 -76 269 -101 477 -106 290 -8 541 82 706 252 126 129 161
281 101 431 -28 68 -92 159 -134 190 l-28 21 75 0 c85 -1 128 14 136 47 4 16
-1 560 -5 571 -6 16 -47 40 -60 36 -10 -2 -40 -41 -66 -85 -29 -50 -63 -91
-88 -109 -37 -27 -48 -30 -107 -28 -110 3 -183 31 -460 176 -174 91 -270 119
-410 121 -55 1 -110 -5 -157 -18z m265 -20 c95 -19 152 -41 272 -103 303 -157
379 -187 487 -188 103 -2 163 40 229 158 63 112 67 98 70 -234 3 -264 2 -273
-17 -284 -19 -10 -118 -12 -224 -4 -39 2 -46 1 -33 -8 100 -71 129 -97 162
-141 50 -66 68 -106 84 -181 58 -278 -290 -555 -718 -571 -492 -18 -858 217
-844 542 5 129 66 267 161 370 l29 31 -41 46 c-103 116 -148 283 -102 380 41
85 148 164 252 185 64 13 172 14 233 2z"/>
<path d="M560 4645 c-114 -17 -213 -74 -246 -142 -22 -46 -24 -54 -29 -124 -4
-67 24 -144 80 -217 51 -67 76 -80 162 -80 60 0 97 -9 234 -56 146 -49 169
-54 231 -51 83 4 81 8 76 -156 -2 -93 -6 -114 -18 -114 -12 0 -16 21 -18 118
l-3 117 -60 0 c-45 0 -95 12 -197 46 -174 58 -165 55 -247 59 -78 2 -113 -9
-157 -50 -52 -50 -114 -203 -121 -304 -19 -256 230 -474 592 -518 70 -9 249
-10 316 -1 127 15 310 82 383 138 160 123 223 264 185 409 -19 73 -45 115
-113 181 -73 70 -120 93 -250 120 -91 19 -146 38 -114 41 5 0 18 3 29 5 20 4
288 5 415 1 l65 -2 1 192 c0 106 -1 206 -4 223 l-4 30 -28 -38 c-68 -95 -143
-128 -263 -119 -91 7 -159 32 -400 151 -282 138 -361 161 -497 141z"/>
<path d="M2290 4701 c-55 -8 -109 -39 -115 -66 -2 -11 -3 -54 -1 -95 1 -41 1
-78 -1 -82 -2 -4 -16 -2 -31 3 -42 17 -152 18 -197 2 -82 -29 -75 34 -75 -698
0 -493 3 -654 12 -663 24 -24 60 -13 109 33 26 25 74 57 106 72 50 23 71 27
153 27 106 0 182 -20 300 -79 172 -86 328 -91 481 -15 120 59 210 142 296 273
47 72 103 186 103 211 0 8 4 17 9 20 5 4 8 -82 7 -209 -2 -201 4 -269 28 -292
3 -4 99 -5 213 -4 185 2 210 4 226 20 10 10 19 25 21 35 3 21 13 19 54 -12 69
-53 156 -57 209 -9 20 18 23 18 38 4 38 -38 173 -49 415 -33 124 8 158 21 170
67 4 13 6 314 5 669 -2 678 -4 707 -47 734 -22 14 -53 -14 -62 -55 -9 -45 -56
-135 -85 -163 -14 -14 -38 -27 -53 -30 -27 -5 -74 24 -283 176 -61 44 -144 78
-190 78 -43 0 -63 -27 -66 -90 -4 -84 -49 -140 -113 -140 -38 0 -125 50 -223
128 -106 84 -161 111 -221 112 -82 0 -124 -47 -140 -155 -4 -27 -7 -129 -7
-225 0 -134 4 -180 15 -197 15 -24 51 -43 79 -43 17 0 18 -11 18 -135 0 -74
-3 -135 -6 -135 -3 0 -13 15 -21 33 -21 45 -87 91 -184 128 -80 30 -84 33 -77
58 5 20 6 596 2 693 -1 10 -12 25 -25 33 -23 15 -27 14 -73 -9 -26 -14 -61
-28 -78 -31 -32 -6 -167 -7 -200 -1 -11 2 -42 7 -68 10 -27 4 -58 9 -70 12
-12 2 -39 6 -61 10 -22 3 -43 7 -46 9 -5 3 -100 14 -170 19 -19 1 -55 0 -80
-3z m240 -47 c251 -44 248 -44 351 -45 95 0 160 13 199 41 51 36 52 31 52
-344 0 -191 -3 -351 -7 -354 -4 -4 -34 -9 -68 -12 l-62 -5 94 -23 c180 -44
301 -112 317 -179 28 -110 -113 -363 -276 -495 -91 -73 -209 -120 -304 -121
-97 -1 -138 9 -253 61 -178 80 -224 92 -343 88 -102 -4 -190 -40 -258 -105
-24 -23 -50 -41 -58 -41 -12 0 -14 95 -14 646 l0 645 38 16 c57 24 110 25 189
3 40 -11 75 -20 76 -20 2 0 3 50 2 111 -1 104 0 112 21 125 49 33 148 35 304
8z m1028 -73 c20 -11 90 -60 156 -109 121 -92 174 -116 238 -108 65 8 118 79
118 159 0 109 75 89 315 -83 168 -121 204 -129 272 -63 32 31 76 118 88 171 4
18 12 31 18 29 29 -9 33 -101 31 -727 -1 -349 -2 -638 -3 -642 -3 -19 -52 -29
-173 -35 -225 -11 -313 -5 -356 23 -22 14 -24 21 -19 72 l5 57 -32 -64 c-18
-35 -43 -69 -57 -77 -38 -21 -92 -17 -133 11 -40 27 -85 74 -86 90 -1 6 -10
28 -21 50 l-19 40 5 -86 c3 -58 0 -91 -8 -102 -10 -14 -38 -17 -182 -17 -93
-1 -182 -1 -197 0 -22 0 -29 6 -35 30 -4 17 -7 209 -7 428 1 221 -2 402 -7
408 -5 6 -19 9 -32 7 -13 -3 -33 4 -47 15 l-25 20 1 194 c1 209 11 266 49 304
30 30 90 32 143 5z"/>
<path d="M2325 4635 c-5 -2 -22 -6 -36 -9 -33 -7 -46 -38 -44 -101 1 -27 3
-65 4 -82 2 -49 34 -66 129 -65 42 0 88 5 101 10 35 13 70 3 76 -22 3 -11 3
-101 2 -199 -2 -104 0 -180 6 -184 19 -11 496 -1 517 12 6 4 10 126 9 306 0
280 -1 300 -17 294 -66 -28 -133 -37 -227 -32 -55 3 -113 9 -130 12 -280 57
-364 70 -390 60z"/>
<path d="M1978 4398 c-16 -5 -29 -13 -29 -16 -6 -33 -2 -1172 4 -1172 5 0 23
11 40 24 71 54 132 70 262 70 131 0 144 -4 360 -95 128 -54 222 -61 325 -25
209 73 402 298 426 496 6 45 4 51 -26 80 -60 59 -252 122 -440 145 -30 4 -66
9 -80 10 -14 2 -78 6 -142 10 -96 6 -118 4 -119 -7 -1 -7 -2 -94 -2 -193 -2
-173 -3 -180 -22 -180 -20 0 -20 7 -22 320 0 176 -1 354 -2 396 l-1 77 -112
-1 c-96 0 -125 4 -188 25 -122 42 -187 52 -232 36z"/>
<path d="M3462 4553 c-13 -3 -31 -17 -41 -33 -15 -25 -17 -53 -15 -222 2 -106
3 -199 3 -205 1 -8 14 -13 31 -13 23 0 33 6 39 23 5 12 7 27 4 33 -6 15 23 38
32 25 3 -6 6 -37 5 -68 0 -32 -1 -240 -2 -462 -1 -380 0 -405 17 -417 10 -8
32 -12 49 -9 17 2 87 4 156 4 l125 1 -2 57 c-1 32 -4 184 -8 338 -3 154 -6
302 -8 328 -2 27 3 56 9 65 10 14 14 11 23 -25 6 -23 13 -81 16 -130 2 -48 7
-140 10 -203 6 -118 9 -143 26 -218 13 -60 33 -106 64 -146 94 -124 196 -74
230 113 11 58 18 220 19 401 1 171 3 195 17 198 23 4 27 -28 24 -198 -9 -450
-8 -551 2 -561 16 -16 439 -17 455 -1 10 10 13 148 13 607 l0 594 -47 -50
c-89 -93 -162 -96 -294 -12 -29 18 -58 38 -66 45 -86 81 -177 138 -218 138
-18 0 -20 -6 -20 -72 -1 -78 -8 -395 -14 -569 -3 -109 -11 -143 -27 -118 -5 8
-9 139 -9 291 l0 277 -42 -19 c-88 -40 -159 -17 -317 104 -136 103 -174 120
-239 109z"/>
</g>
</svg>
